<?xml version="1.0" encoding="utf-8"?>
<!-- Generator: Adobe Adobe Illustrator 24.2.0, SVG Export Plug-In . SVG Version: 6.00 Build 0)  -->
<svg version="1.1" id="Layer_1" xmlns="http://www.w3.org/2000/svg" xmlns:xlink="http://www.w3.org/1999/xlink" x="0px" y="0px"
	 width="1800px" height="900px" viewBox="0 0 1800 900" style="enable-background:new 0 0 1800 900;" xml:space="preserve">
<style type="text/css">
	.st0{fill:#DBBD93;}
	.st1{fill:#FFFFFF;}
	.st2{fill:#C9C9C9;}
	.st3{opacity:0.2706;fill:#FFE057;}
	.st4{fill:#8A6745;}
	.st5{fill:#CE8F51;}
	.st6{opacity:0.502;fill:#36302A;}
	.st7{fill:#9C7854;}
	.st8{opacity:0.502;}
	.st9{fill:#2B3134;}
	.st10{fill:#23282B;}
	.st11{fill:#7E8F95;}
	.st12{opacity:0.502;fill:#343B3D;}
	.st13{fill:#65767C;}
	.st14{fill:#585F61;}
	.st15{fill:#E8D479;}
</style>
<path d="M659.53,573.45c-0.55-38.69,1.37-63.36,9.63-101.17c6.84-31.31,11.25-61.11,6.94-92.86c-1.61-11.86,0.45-39.27,0.56-51.23
	c0.1-10.36,3.3-20.47,7.55-29.93c13.39-29.84,37.77-54.67,67.48-68.71c29.71-14.05,64.51-17.2,98.87-6.43
	c26.42-14.61,59.26-15.33,87.93-5.77c28.67,9.56,46.15,31.01,66.19,53.48c8.29,9.29,17.23,25.49,20.89,37.36
	c2.56,8.29,6.66,23.06,6.76,31.73c0.18,15.02,1.72,15.64-0.2,30.54c-1.58,12.23-3.86,24.47-3.26,36.78
	c0.53,10.97,3.33,21.69,5.21,32.52c3.91,22.47,3.86,45.4,3.8,68.2"/>
<path class="st0" d="M854.77,289.42c-22.29-11.11-50.5-7.6-71,6.51c-20.5,14.1-33.41,37.65-37.1,62.13
	c-2.68,17.76-3.49,36.5-0.51,54.21c3.68,21.9,11.58,47.7,24.68,63.69c13,15.87,30.45,21.13,48.1,31.69
	c14.35,8.58,41.51,10.96,57.58,15.65c3.44,1,7,2.02,10.55,1.55c3.32-0.44,6.31-2.14,9.14-3.92c26.09-16.45,45.16-42.72,55.41-71.66
	c10.25-28.94,12.02-60.42,8.03-90.84c-1.89-14.39-5.1-28.79-11.74-41.72s-16.97-24.36-30.3-30.32
	C897.27,277.3,873.5,282.01,854.77,289.42z"/>
<path d="M854.12,289.35c-12.22-7.33-27.48-8.11-41.51-5.47c-9.97,1.87-19.78,5.44-27.82,11.59c-19.77,15.13-25.07,42.22-26.96,66.92
	c-3.6,47.17-0.16,96.13-17.57,140.17c-15.69-33.01-30.09-68.04-29.16-104.53c0.95-37.73,18.43-73.48,41.61-103.41
	c8.49-10.96,17.94-21.46,29.72-28.84c11.78-7.38,26.19-11.42,39.83-8.61s25.27,5.92,27.79,19.51c0.4,2.14,1.99,4.69,2.87,7.6
	C853.17,284.16,853.18,289.06,854.12,289.35z"/>
<path d="M853.13,288.7c15.62-4.83,32.16-7.97,48.35-5.56c16.18,2.41,32.03,11.05,40.01,25.23c6.15,10.93,7.15,23.9,7.79,36.4
	c2.4,47.05,1.61,94.27-2.38,141.22c8.18-3.31,14.71-9.72,20.11-16.66c15.63-20.07,23.45-45.36,25.43-70.65
	c1.99-25.29-1.56-50.71-6.79-75.53c-5.46-25.92-14.32-53.66-36.49-68.39c-16.22-10.77-37.81-12.49-56.08-5.69
	C874.79,255.85,859.99,270.63,853.13,288.7z"/>
<path class="st1" d="M1126.6,730.8c34.61-2.56,69.24-4.99,103.87-7.29c3.52-0.23,7.33-0.39,10.26,1.55c3.71,2.47,4.7,7.83,2.93,11.9
	c-1.76,4.07-5.71,6.9-9.93,8.35s-8.75,1.72-13.2,1.97c-32.15,1.81-64.3,3.62-96.45,5.42"/>
<path class="st2" d="M1209.59,738.17c-23.65,2.29-51.26,7.94-75.03,5.58c-3.78-0.37-6.75-1.92-8.98-4.06l-1.5,13.01
	c32.15-1.81,64.3-3.62,96.45-5.42c4.46-0.25,8.98-0.51,13.2-1.97c4.22-1.45,8.17-4.27,9.93-8.35c1.73-4,0.78-9.23-2.78-11.75
	C1233.48,733.17,1221.68,737,1209.59,738.17z"/>
<polygon class="st3" points="304.24,279.24 52.13,830.86 1686.42,805.23 565.61,212.71 "/>
<path d="M383.18,265.44c-2.68,2.29-3.97,6.28-3.18,9.85c0.38,1.73,1.41,3.51,3.04,3.88c1.94,0.44,3.75-1.27,4.68-3.14
	c0.81-1.64,1.22-3.49,1.19-5.34c-0.02-1.58-0.41-3.23-1.47-4.33S384.29,264.49,383.18,265.44z"/>
<path d="M382.1,278.19c-2.04,0.92-3.58,3.24-3.97,5.99c-0.39,2.75,0.38,5.84,1.99,8c0.98,1.31,2.34,2.3,3.68,2.14
	c1.4-0.17,2.48-1.59,2.95-3.24c0.47-1.65,0.43-3.51,0.34-5.33c-0.09-1.83-0.27-3.76-1.1-5.35
	C385.16,278.82,383.41,277.6,382.1,278.19z"/>
<path d="M379.74,294.53c-1.32,0.85-2.08,2.47-2.32,4.1c-0.24,1.63-0.02,3.29,0.22,4.92c0.25,1.77,0.73,3.83,2.28,4.52
	c1.73,0.77,3.65-0.74,4.61-2.46c1.44-2.59,1.7-5.89,0.7-8.7c-0.43-1.2-1.12-2.36-2.17-2.99C382,293.28,380.94,293.76,379.74,294.53z
	"/>
<path d="M381.01,306.53c-2.14,1.48-3.76,3.82-4.45,6.44c-0.66,2.47-0.26,5.6,1.83,6.87c1.79,1.09,4.24,0.28,5.49-1.47
	c1.25-1.74,1.45-4.16,0.95-6.3C384.32,309.93,383.2,308.03,381.01,306.53z"/>
<path d="M379.81,318.93c-2.05,0.7-3.22,3.82-3.37,6.74c-0.06,1.2,0.02,2.44,0.4,3.51c0.39,1.07,1.13,1.95,1.99,2.07
	c0.9,0.12,1.75-0.57,2.48-1.33c1.35-1.41,2.6-3.46,2.47-5.8c-0.09-1.51-0.76-2.85-1.6-3.81S380.34,318.75,379.81,318.93z"/>
<path d="M377.46,330.74c-1.39,0.63-2.42,2.57-2.72,4.7c-0.31,2.13,0.04,4.38,0.74,6.29c0.23,0.62,0.51,1.23,0.92,1.59
	c0.52,0.45,1.17,0.4,1.76,0.21c1.61-0.5,3.13-1.98,3.9-4.16c0.77-2.18,0.7-5.05-0.33-6.97S378.78,330.14,377.46,330.74z"/>
<path d="M377.73,342.07c-1.38,0.41-2.1,1.94-2.53,3.33c-0.71,2.29-1.12,4.68-1.21,7.07c-0.03,0.91-0.02,1.84,0.32,2.68
	c0.34,0.84,1.07,1.56,1.96,1.63c1.5,0.12,2.55-1.49,3.11-2.93c0.81-2.08,1.37-4.29,1.26-6.51S379.7,342.9,377.73,342.07z"/>
<path d="M376.84,353.79c-4.24,0.46-8.32,4.97-9.48,10.47c-0.51,2.44-0.47,5.06,0.34,7.19c0.77,2,2.16,3.42,3.71,4.37
	c2.55,1.56,5.59,1.9,8.48,0.93c0.97-0.32,1.95-0.81,2.72-1.71c0.85-1,1.35-2.41,1.76-3.79c0.91-3.08,1.51-6.46,0.84-9.45
	C384.13,357.01,380.14,354.71,376.84,353.79z"/>
<path class="st4" d="M342.55,83.45l-50.18,1.32c-0.02,0-0.04,0-0.06,0.01l-37.44,4.32c-6.15,0.71-12.07,2.86-17.34,6.31l-14.93,9.76
	c-5.27,3.45-9.61,8.31-12.59,14.09l-24.98,48.6c-6.37,12.39-9.83,26.24-10.1,40.37l-2.12,111.5l-1.9,220.11l1.89,269.87
	c0,0.51-0.34,0.95-0.81,1.04l-26.47,5.02c-0.61,0.12-1.16-0.39-1.15-1.05l4.07-269.38c-0.03-1.83-0.01-3.67,0.06-5.5l-0.35-220.8
	l4.38-116.37c0.45-11.9,2.92-23.61,7.3-34.56l20.15-50.37c4.4-11,11.15-20.76,19.7-28.49l16.7-15.1
	c7.85-7.15,17.66-11.37,27.95-12.04l35.97-2.34c0.02,0,0.04,0,0.06,0h95.87c13.61,0,26.34,7.16,34.04,19.14v0
	c1.91,2.97,3.32,6.27,4.18,9.75l4.8,19.48c0.13,0.52-0.13,1.06-0.6,1.25l-21.66,8.75c-0.51,0.2-1.07-0.07-1.26-0.61l-8.01-22.8
	c-0.74-2.11-9.43-11.22-13.94-10.55"/>
<path class="st5" d="M299.45,287.56c-8.44-31.82,3.36-65.79,19.05-94.31c17.54-31.9,41.31-61.5,73.04-76.34
	c35.47-16.59,78.19-12.32,111.68,8.44s57.67,56.87,69.08,94.64C481.34,243.4,390.39,266.81,299.45,287.56z"/>
<path class="st6" d="M142.49,819.93c-28.14,0.31-56.9,0.72-83.39,10.18c-5.72,2.04-11.44,4.6-15.66,8.93
	c-4.22,4.33-6.68,10.8-4.81,16.53c1.3,3.98,4.47,7.12,8.01,9.38c8.06,5.13,17.97,6.27,27.5,7.18c44.65,4.24,89.52,6.19,134.37,5.83
	c26-0.21,52.25-1.23,77.41-7.76c6.46-1.68,12.99-3.8,18.19-7.94c5.21-4.14,8.9-10.71,7.96-17.27c-0.8-5.57-4.79-10.29-9.58-13.29
	s-10.35-4.52-15.85-5.87C236.72,813.5,185.15,819.46,142.49,819.93z"/>
<path class="st4" d="M142.49,808.14c-28.14,0.31-56.9,0.72-83.39,10.18c-5.72,2.04-11.44,4.6-15.66,8.93s-6.68,10.8-4.81,16.53
	c1.3,3.98,4.47,7.12,8.01,9.38c8.06,5.13,17.97,6.27,27.5,7.18c44.65,4.24,89.52,6.19,134.37,5.83c26-0.21,52.25-1.23,77.41-7.76
	c6.46-1.68,12.99-3.8,18.19-7.94c5.21-4.14,8.9-10.71,7.96-17.27c-0.8-5.57-4.79-10.29-9.58-13.29s-10.35-4.52-15.85-5.87
	C236.72,801.71,185.15,807.67,142.49,808.14z"/>
<path class="st7" d="M108.06,852.34c23.73,2.92,49.03,3.45,72.95,2.91c24.01-0.54,48.6-3.11,72.24-7.36
	c14.88-2.68,43.47-7.07,57.68-18.66c-1.68-3.84-4.83-7.07-8.44-9.33c-4.79-3-10.35-4.52-15.85-5.87
	c-49.92-12.32-101.49-6.36-144.15-5.89c-28.14,0.31-56.9,0.72-83.39,10.18c-5.72,2.04-11.44,4.6-15.66,8.93
	c-0.74,0.75-1.39,1.59-2.01,2.46C56.34,846.13,88.67,849.96,108.06,852.34z"/>
<polygon class="st8" points="676.68,973.98 1397.17,973.98 1130.17,819.97 518.48,820.6 "/>
<polygon class="st9" points="452.69,475.96 1190.75,476.59 1130.17,819.97 518.48,820.6 "/>
<path class="st10" d="M1284.6,737.82c-24.75,28.59-45.14,49.03-69.78,77.5l471.6-8.28l-49.73-79.44L1284.6,737.82z"/>
<path class="st11" d="M1282.85,740.16l-43.24-195.24c0,0,70.63-3.58,70.67-4.67c-5.4-1.96-11.84-5.37-11.54-11.07
	c0.1-1.89,1-3.65,2.13-5.18c6.29-8.51,18.37-9.84,28.99-10.35c85.01-4.13,170.23-4.07,255.23,0.19c3.74,0.19,7.89,0.57,10.39,3.33
	c1.55,1.7,2.17,4.07,2.22,6.36c0.12,6.5-4.54,12.81-10.83,14.64l86.57,6.04l-34.23,187.73L1282.85,740.16z"/>
<path class="st8" d="M1290.77,854.83c-0.04-0.03-0.08-0.04-0.12-0.07c-0.01-0.01-0.03-0.03-0.04-0.04
	c-0.02-0.01-0.04-0.03-0.06-0.04c-0.22-0.15-0.49-0.35-0.72-0.5c-0.01-0.01-0.07-0.07-0.08-0.07
	c-29.46-15.85-46.35-24.59-74.93-38.79l471.12-8.42l58.88,47.86L1290.77,854.83z"/>
<path class="st8" d="M1290.77,854.79l55.58,60.8c0,0,46.23,0.06,46.27,0.49c-5.36,0.77-6.97,1.33-7.48,4.33
	c-0.03,0.19-0.44,2.16,0.73,3.22c2.18,1.97,2.87,2.25,6.79,2.69c3.8,0.43,6.33,0.4,7.15,0.4c60.88,0,163.93-3.16,174.47-3.16
	c93.85,0,30.46-1.78,114.43,1.3c3.71,0.14,47.57,0.74,50.28,0.62c3.62-0.16,6.53-0.7,7.85-2.83c1.77-2.86,1.1-5.2,1.02-5.65
	c-0.37-2.02-3.94-4.6-7.22-5.56c-5.81-1.72-13.73-2.58-17.72-3.05l99.86,2.22l-77.94-55.89L1290.77,854.79z"/>
<path class="st12" d="M431.86,786.66c-19.59-3.16-40.21,0.74-57.19,10.82c-16.98,10.08-30.19,26.27-36.62,44.89
	c-4.2,12.15-4.56,27.83,5.76,35.66c5.89,4.47,13.82,5.15,21.2,4.75c31.21-1.69,60.78-20.8,74.96-48.43
	c4.29-8.37,7.28-17.77,6.09-27.12C444.87,797.88,438.94,787.8,431.86,786.66z"/>
<path class="st13" d="M428.07,779.92c-19.59-3.16-40.21,0.74-57.19,10.82c-16.98,10.08-30.19,26.27-36.62,44.89
	c-4.2,12.15-4.56,27.83,5.76,35.66c5.89,4.47,13.82,5.15,21.2,4.75c31.21-1.69,60.78-20.8,74.96-48.43
	c4.29-8.37,7.28-17.77,6.09-27.12S435.15,781.07,428.07,779.92z"/>
<path class="st14" d="M363.86,839.42c-4.95,2.39-9.34,5.9-12.73,10.21c-0.79,1-1.54,2.09-1.74,3.35s0.35,2.72,1.53,3.21
	c0.86,0.36,1.83,0.15,2.72-0.11c4.96-1.49,9.32-4.84,12.02-9.23c0.76-1.23,1.41-2.64,1.25-4.08
	C366.75,841.33,365.51,839.92,363.86,839.42z"/>
<g class="st8">
	<g>
		<path class="st8" d="M1639.26,731.7l34.19-187.5l-86.57-6.04c6.29-1.83,10.95-8.14,10.83-14.64c-0.04-2.29-0.67-4.66-2.22-6.36
			c-2.5-2.76-6.66-3.14-10.39-3.33c-44.52-2.23-89.09-3.24-133.67-3.16c3.17,58.47-9.55,120.14-44.94,167.12
			c-0.45,0.6-0.95,1.15-1.41,1.74c-0.88,1.77-1.67,3.59-2.61,5.31c-10.25,18.83-26.38,37.1-43.91,52.73
			c-9.94,8.87-20.32,16.91-30.36,23.68c-31.72,21.41-66.09,40.62-102.15,53.87l460.38-8.08L1639.26,731.7z"/>
	</g>
</g>
<path class="st15" d="M1012.97,485.68c-183.55,1.55-367.13,0.96-550.67-1.76c89.71,0.07,179.43,0.14,269.14,0.21
	c40.28,0.03,80.57,0.06,120.85,0.09C904.98,484.27,957.66,484.31,1012.97,485.68z"/>
<path class="st15" d="M465.32,490.94c18.59-0.95,37.19-1.86,55.79-2.73c3.93-0.18,8.02-0.34,11.6,1.27
	c-22.9,2.03-45.89,3.03-68.88,2.98C464.58,492.58,465.33,492.7,465.32,490.94z"/>
<path class="st15" d="M554.43,492.79c29.37-1.08,58.77-1.5,88.16-1.28C611.06,495.2,579.21,496.11,554.43,492.79z"/>
<path class="st15" d="M655.52,495.46c74.07-5.18,148.37-7.2,222.62-6.03c-7.19,2.96-15.15,3.32-22.92,3.61
	C786.46,495.57,717.6,495.18,655.52,495.46z"/>
<path class="st15" d="M545.37,496.68c-19.98-0.84-40.04,0.22-59.81,3.15c23.96,4.17,48.38-1.87,72.67-3.04
	C550.21,495.32,542.01,494.83,545.37,496.68z"/>
<path class="st15" d="M474.03,498.46c-5.05-0.85-10.36-0.13-14.99,2.04c5.76,2.49,12.9,1.46,17.7-2.55
	C474.56,497.53,472.31,497.45,474.03,498.46z"/>
<path class="st15" d="M470.2,511.6c11.51-2.52,23.32-5.05,34.98-3.4c-11.96,2.43-24.17,3.64-36.38,3.62
	C469.54,512.08,470.27,512.33,470.2,511.6z"/>
<path class="st15" d="M530.02,507.96c15.51-3.77,31.58-5.24,47.52-4.37c-2.83,1.37-6.07,1.59-9.21,1.78
	c-16.26,1.02-32.52,2.03-48.77,3.05C520.18,508.57,521.03,510.15,530.02,507.96z"/>
<path class="st15" d="M591.99,503.22c21.53-3.18,43.36-4.35,65.11-3.48C628.51,501.25,599.92,502.75,591.99,503.22z"/>
<path class="st15" d="M676.4,504.14c40.13-1.88,80.28-3.12,120.45-3.72c9.46-0.14,19.1-0.23,28.17,2.43
	C771.38,505.22,717.73,507.58,676.4,504.14z"/>
<path class="st15" d="M886.05,492.41c30.49-2.43,61.53-4.83,91.39,1.78C943.89,492.88,910.35,491.58,886.05,492.41z"/>
<path class="st15" d="M473.93,523.12c8.28-2.08,16.83-3.12,25.37-3.08C490.13,524.45,479.66,526.15,473.93,523.12z"/>
<path class="st15" d="M518.98,520.9c20.08-4.91,40.87-6.94,61.53-6.02c-9.07,3.19-18.84,3.63-28.45,4.04
	c-11.31,0.48-22.62,0.97-33.93,1.45C518.88,520.53,519.63,520.7,518.98,520.9z"/>
<path class="st15" d="M581.48,513.13c27.44-5.08,55.63-6.12,83.37-3.08C636.81,510.41,608.77,510.78,581.48,513.13z"/>
<path class="st15" d="M677.08,511.52c11.89-0.64,23.8-0.9,35.71-0.79c3.84,0.04,7.97,0.21,11.04,2.51
	C708.56,513.75,693.26,513.19,677.08,511.52z"/>
<path class="st15" d="M454.3,477.1c86.36-3.66,172.88-3.43,259.22,0.71C629.98,485.42,545.39,470.32,454.3,477.1z"/>
<path class="st15" d="M721.25,479.24c37.04-1.24,74.07-2.47,111.11-3.71c23.07-0.77,46.3-1.53,69.13,1.87
	C840.33,487.15,777.77,476.56,721.25,479.24z"/>
<path class="st15" d="M895.66,477.75c24.58-3.1,49.77-1.35,73.68,5.13c-94.05,2.94-188.17-0.64-282.2-4.21"/>
<path class="st15" d="M466.46,524.17c1.24-0.58,2.56-1,3.9-1.25c-0.83,1.82-3.05,2.89-5.01,2.4
	C465.54,525.21,465.37,524.67,466.46,524.17z"/>
<path class="st15" d="M502.19,520.13c2.65-0.34,5.31-0.63,7.97-0.86c0.8-0.07,1.78-0.05,2.18,0.64
	C508.6,520.76,504.76,521.15,502.19,520.13z"/>
<path class="st15" d="M472.05,530.33c8.55-2.31,17.45-3.35,26.31-3.06c1.56,0.05,3.31,0.24,4.27,1.46
	C491.23,528.73,479.83,529.66,472.05,530.33z"/>
<path class="st15" d="M508.12,526.23c17.91-3.49,36.27-4.66,54.48-3.49C542.88,523.82,523.17,524.91,508.12,526.23z"/>
<path class="st15" d="M514.14,509.66c-3.22-0.46-6.82-0.8-9.42,1.12c4.6,0.61,9.35,0.08,13.7-1.54
	C516.67,509.02,514.86,509.17,514.14,509.66z"/>
<path class="st15" d="M487.7,513.81c-8.41-0.18-16.85,1.48-24.55,4.81c12.72-1.98,25.55-3.31,38.41-3.99
	C495.02,513.65,488.34,513.61,487.7,513.81z"/>
<path class="st15" d="M529.04,510.68c25.58-2.35,51.16-4.7,76.75-7.05C580.44,508.36,554.7,511.02,529.04,510.68z"/>
<path class="st15" d="M486.58,490.11c-8.11,0.47-16.23,0.94-24.34,1.41c-0.65,0.04-1.52,0.31-1.45,0.96
	c4.9,1.82,10.44,1.9,15.39,0.23"/>
<path class="st15" d="M464.35,499.9c5.23-1.45,10.62-2.37,16.04-2.74c-0.41,0.84-1.45,1.12-2.37,1.31
	C472.61,499.59,467.19,500.72,464.35,499.9z"/>
<path class="st15" d="M482.21,502.55c-4-0.19-8.19-0.35-11.78,1.39c5,0.05,10-0.69,14.76-2.2
	C482.12,501.71,479.05,501.93,482.21,502.55z"/>
<path class="st15" d="M584.21,498.76c-5.56-0.67-11.22-0.48-16.73,0.54c7.97,0.03,15.95-0.59,23.82-1.85
	C588.89,497.61,586.47,497.77,584.21,498.76z"/>
<path class="st15" d="M594.9,517.5c0.93-0.2,1.86-0.4,2.8-0.59c-7.66-0.1-15.4,0.61-22.7,2.93c8.94-0.54,17.84-1.6,26.66-3.17
	C597.37,516.37,593.03,516.75,594.9,517.5z"/>
<path class="st15" d="M667.49,503.07c-9.35-0.47-18.8-0.37-27.98,1.44c10.79-0.43,21.58-0.86,32.37-1.28
	c-6.71-0.4-13.43-0.64-20.15-0.71"/>
<path class="st15" d="M662.28,491.37c-4.39-0.37-8.8-0.51-13.21-0.42c-1.37,0.03-2.82,0.11-3.94,0.89c1.22,0.54,2.57,0.67,3.9,0.77
	c5.32,0.39,10.68,0.29,15.98-0.32c-4.28-0.36-8.59-0.33-12.86,0.06"/>
<path class="st15" d="M476.07,542.01c10.18-2.13,20.53-3.42,30.93-3.86C495.56,541.09,483.74,542.53,476.07,542.01z"/>
<path class="st15" d="M485.9,533.76c-4.42,0.42-8.83,0.84-13.25,1.27C481.6,537.72,491.84,535.65,485.9,533.76z"/>
<path class="st15" d="M168,811.36c-34.3-2.49-68.74,2.2-102.48,8.78c-5.96,1.16-12.71,2.97-15.34,8.4c-0.77,1.58-1.08,3.5-0.3,5.07
	c0.78,1.57,2.92,2.51,4.43,1.6c-1.75-1.97-0.99-5.24,0.92-7.06c1.9-1.82,4.58-2.54,7.14-3.18c33.31-8.24,91.87-11.24,91.87-11.24
	S160.32,812.85,168,811.36z"/>
<path class="st15" d="M191.91,811.07c12.84-1.48,26.38-2.88,38.26,2.19C217.54,812.89,204.91,812.52,191.91,811.07z"/>
<path class="st15" d="M255.04,816.65c14.04-0.01,28.48,0.05,41.53,5.21c1.89,0.74,3.78,1.63,5.17,3.1c1.39,1.47,2.17,3.65,1.48,5.55
	c-1.15,3.17-5.31,3.79-8.71,3.89c2.73-0.39,5.21-2.18,6.42-4.64c0.26-0.52,0.46-1.08,0.44-1.65c-0.04-1.02-0.77-1.88-1.53-2.57
	c-4.91-4.46-12.05-5.27-18.68-5.86C272.34,818.89,263.51,818.11,255.04,816.65z"/>
<path class="st15" d="M241.59,818.95c-4.98-0.82-10.32-1.61-14.91,0.48c1.96,1.17,4.26,1.61,6.52,1.94c6.03,0.9,12.14,1.23,18.23,1
	c-4.14-2.51-8.9-4-13.73-4.29c-0.19-0.01-0.41,0-0.51,0.15C237.09,818.39,237.35,818.64,241.59,818.95z"/>
<path class="st15" d="M186.64,811.46c-2.12-0.45-4.46,0.42-5.76,2.14c1.96,0.51,4,0.73,6.02,0.66c0.66-0.02,1.35-0.09,1.91-0.44
	s0.94-1.07,0.7-1.68C188.78,812.1,188.11,811.78,186.64,811.46z"/>
<path class="st15" d="M747.63,350.79c-1.21,30.58-2.05,61.17-2.53,91.77c1.61-32.66,2.99-65.33,4.15-98.02
	C747.86,347.24,747.19,350.3,747.63,350.79z"/>
<path class="st15" d="M750.21,448.97c-1.12,9.29-2.54,18.99-8.07,26.57C745.07,466.86,748.04,457.89,750.21,448.97z"/>
<path class="st15" d="M751.13,428.29c0.04-14.14,0.07-28.29,0.11-42.43c1.76,5.29,1.53,11,1.28,16.56
	C752.13,410.96,751.75,419.5,751.13,428.29z"/>
<path class="st15" d="M738.78,442.37c0.26,2.71-0.18,5.48-0.29,7.02c-0.69,9.73-4.48,19.22-10.67,26.8h0.23
	c0.01,0,0.02,0.01,0.03,0.01c4.23-4.16,7.75-9.06,9.85-14.57C740.27,455.5,740.78,448.61,738.78,442.37z"/>
<path class="st15" d="M787.87,286.75c-5.22,2.85-10.11,6.28-14.56,10.21C778.51,293.44,783.7,289.92,787.87,286.75z"/>
<path class="st15" d="M739.1,341.03c-5.3,20.06-0.16,41.84-6.07,61.72C738.32,383.46,739.77,363.13,739.1,341.03z"/>
<path class="st15" d="M733.72,417.65c0.28,8.62-1.78,17.3-5.91,24.89C734.06,435.6,736.85,425.73,733.72,417.65z"/>
<path class="st15" d="M725.11,449.22c-2.15,7.73-6.75,14.64-12.38,20.38c-2.33,2.37-4.85,4.55-7.48,6.6c0.03,0,0.07-0.01,0.1-0.01
	h0.06c0.05,0,0.05,0,0,0.01c-0.08,0.01-0.05,0.01,0.11-0.01c0.01,0,0.03,0,0.04,0c0.08,0,0.16,0,0.25,0c0.14,0,0.26,0.02,0.39,0.08
	h0l-0.26-0.07c0.04,0,0.08,0.01,0.11,0.01c0.01,0,0,0,0.01,0c0.04,0,0.07,0,0.11,0h0.32c0.19,0,0.38,0.01,0.57,0
	c0.01,0,0.02-0.01,0.04-0.01c0.01,0,0.05,0,0.06,0c0.05-0.01,0.07-0.01,0.05-0.01c-0.04,0.01-0.06,0.01-0.01,0c0.02,0,0.01,0,0.01,0
	c0.04-0.01,0.11-0.02,0.11-0.02c0.13-0.01,0.27,0,0.4,0c1.97-1.19,3.89-2.46,5.64-3.95c2.37-2.02,4.42-4.39,6.26-6.89
	C723.32,460.31,726.31,454.23,725.11,449.22z"/>
<path class="st15" d="M740.37,402c-0.97,4.88-1.42,9.86-1.36,14.83C740.43,412.69,740.94,408.25,740.37,402z"/>
<path class="st15" d="M732.3,450.22c-0.96,4.1-1.92,8.21-2.87,12.31C731.88,459.21,732.99,454.94,732.3,450.22z"/>
<path class="st15" d="M746.87,476.24c1.72-4.53,3.04-9.2,4-13.94c-1.02,4.72-2.54,9.35-4.18,13.92
	C746.75,476.22,746.81,476.24,746.87,476.24z"/>
<path class="st15" d="M753.53,439.2c-1.48,5.28-1.09,10.87-1.59,16.33c-0.08,0.88-0.2,1.75-0.32,2.62
	c0.58-3.73,0.94-7.48,1.04-11.25C752.82,440.51,753.5,439.88,753.53,439.2z"/>
<path class="st15" d="M747.19,335.55c4.46-8.46,11.28-15.69,14.64-24.64C757.78,319.42,752.82,327.51,747.19,335.55z"/>
<path class="st15" d="M764.33,313.76c-4.42,9.6-7.47,19.81-9.03,30.25C756.95,333.88,759.83,323.94,764.33,313.76z"/>
<path class="st15" d="M742.88,371.84c0.01,4.42-0.13,8.83-0.42,13.24C742.57,381.05,742.76,377.02,742.88,371.84z"/>
<path class="st15" d="M757.56,358.68c-1.14,8.71-1.62,17.51-1.43,26.29C756.68,376.17,757.23,367.37,757.56,358.68z"/>
<path class="st15" d="M808.95,442.61c-2.75,3.23-5.49,6.47-8.24,9.7"/>
<path class="st15" d="M717.45,476.2C717.45,476.2,717.46,476.2,717.45,476.2c0.04,0,0.07,0,0.1,0c0.03,0,0.05-0.02,0.08-0.02h0.15
	c0.05,0,0.1,0,0.15,0.01c0.01,0,0.01,0,0.02,0h0c0.04,0,0.08,0,0.11,0c0.04,0.01,0.04,0.01,0.07,0.01c0.03,0,0.05,0,0.08,0
	c2.39-1.88,4.49-3.9,5.37-6.62C721.61,471.86,719.55,474.05,717.45,476.2z"/>
<path class="st15" d="M693.16,473.93c7.9-8.86,12.88-19.97,15.98-31.39c3.1-11.42,4.4-23.24,5.7-35
	C713.69,431.39,706.29,454.92,693.16,473.93z"/>
<path class="st15" d="M724.87,353.13c-1.01,11.06-2.7,22.06-5.06,32.91C722.01,375.33,723.66,364.5,724.87,353.13z"/>
<path class="st15" d="M721.94,392.54c0.94,13.24-4.62,26.02-6.54,39.16c4.83-12.74,7.11-26.42,6.66-40.02
	C722.04,391.12,721.78,390.32,721.94,392.54z"/>
<path class="st15" d="M1254.14,567.27c8.79,47.16,17.58,94.33,26.37,141.49C1277.56,661.56,1268.97,614.7,1254.14,567.27z"/>
<path class="st15" d="M1285.31,692.89c2.71,13.89,5.43,27.82,9.76,41.3c-1.42-8.75-2.85-17.51-4.27-26.26
	C1290.08,703.51,1289.21,698.77,1285.31,692.89z"/>
<path class="st15" d="M1275.32,623.92c2.53,13.79,5.05,27.59,7.58,41.38C1284.93,652.62,1278.26,640.28,1275.32,623.92z"/>
<path class="st15" d="M1260.43,554.63c0,0,10.91,48.47,11.17,48.77c1.23-6.59-0.32-13.35-2.04-19.83
	C1267.07,574.21,1264.21,564.94,1260.43,554.63z"/>
<path class="st15" d="M1247.96,551.09c0.37,3.49,1.12,6.95,2.24,10.28C1251.17,558.03,1250.56,554.27,1247.96,551.09z"/>
<path class="st15" d="M1285.45,729c0.01,3.03,0.01,6.06,0.02,9.09C1286.55,735.72,1286.65,732.92,1285.45,729z"/>
<path class="st15" d="M1226.6,808.56c0,0,53.79-59.06,53.85-59.06c-1.13,4.97-4.85,8.89-8.42,12.54
	C1257.08,777.34,1242.14,792.63,1226.6,808.56z"/>
<path class="st15" d="M1285.89,750.61c-4.3,7.46-10.32,13.77-16.27,20.01c-4.01,4.2-8.02,8.4-12.03,12.6
	c2.07,0.05,3.74-1.59,5.12-3.11c5.23-5.78,10.26-11.73,15.29-17.69C1281.06,758.81,1284.14,755.15,1285.89,750.61z"/>
<path class="st15" d="M1251.56,789.9c-3.12,3.19-6.24,6.38-9.36,9.58c3.68-1.82,6.91-4.54,9.3-7.86
	C1251.77,791.23,1251.83,790.48,1251.56,789.9z"/>
<path class="st15" d="M1291.78,743.61c-0.61,4-1.98,7.88-4.02,11.38C1290.37,751.94,1292.26,748.28,1291.78,743.61z"/>
<path class="st15" d="M1283.66,743.01c-0.73,1.8-1.46,3.6-2.19,5.4c2.11-0.96,3.65-3.06,3.92-5.35
	C1284.88,742.84,1284.25,743.07,1283.66,743.01z"/>
<path class="st15" d="M1314.8,518.68c-2.53,0.52-5.07,1.21-7.24,2.59c-2.17,1.38-3.95,3.56-4.3,6.1c-0.06,0.45-0.07,0.92,0.12,1.33
	c0.23,0.5,0.72,0.82,1.2,1.09c2.6,1.45,5.66,2.08,8.62,1.76c-1.86-0.63-3.63-1.52-5.25-2.62c-0.36-0.24-0.72-0.51-0.91-0.89
	c-0.18-0.37-0.19-0.8-0.15-1.21C1307.22,523.36,1310.36,520.37,1314.8,518.68z"/>
<path class="st15" d="M1310.96,538.59c-3.57-0.16-6.84-2.98-7.49-6.47c1.44,0.92,2.34,2.44,3.39,3.77
	C1307.93,537.22,1309.38,538.47,1310.96,538.59z"/>
<path class="st15" d="M1268.07,549.81c0.66,5.5,1.88,10.94,3.65,16.2c0.45,1.34,0.97,2.72,2.05,3.65c0.4-7.04-2.22-13.86-4.79-20.43
	C1268.83,549.05,1268.5,549.25,1268.07,549.81z"/>
<path class="st15" d="M1278.13,548.36c0.2,3.03,0.78,6.04,1.73,8.93c0.65-3.28-1.06-6.5-2.2-9.64c-0.04-0.12-0.08-0.27,0-0.37
	C1277.74,547.18,1278.05,547.29,1278.13,548.36z"/>
<path class="st15" d="M1286.34,546.78c0.19,1.68,0.52,3.35,0.98,4.98c0.09,0.33,0.26,0.71,0.6,0.75c0.49,0.06,0.69-0.6,0.67-1.09
	C1288.52,549.56,1287.96,547.72,1286.34,546.78z"/>
<path class="st15" d="M1295.74,545.6c0.3,1.61,0.71,3.21,1.23,4.76c0.07,0.21,0.15,0.43,0.34,0.56c0.5,0.34,1.08-0.32,1.25-0.9
	C1299.16,547.97,1298.48,545.62,1295.74,545.6z"/>
<path class="st15" d="M1305.9,543.9c0.24,1.27,0.48,2.53,0.73,3.8c0.07,0.36,0.15,0.74,0.39,1.02c0.25,0.28,0.72,0.39,0.99,0.13
	c0.15-0.14,0.2-0.35,0.23-0.55C1308.62,546.16,1307.84,543.86,1305.9,543.9z"/>
<path class="st15" d="M1278.06,560.04c1.04,11.34,2.08,22.7,4.01,33.92c0.31,1.79,0.79,3.8,2.38,4.7
	c-1.99-7.63-3.05-15.5-3.14-23.37C1281.27,571.19,1281.41,566.8,1278.06,560.04z"/>
<path class="st15" d="M1274.72,585.81c1.31,5.18,2.63,10.36,3.94,15.54c0.11,0.42,0.28,0.91,0.71,1.01c0.73,0.17,1.02-0.9,0.94-1.64
	c-0.53-5.35-1.79-10.62-3.74-15.63c-0.07-0.19-0.17-0.4-0.37-0.47C1276.01,584.55,1275.76,584.79,1274.72,585.81z"/>
<path class="st15" d="M1272.85,608.55c1.53,4.91,3.06,9.82,4.59,14.74C1277.3,618.52,1276.09,613.79,1272.85,608.55z"/>
<path class="st15" d="M1282.32,610.5c1.05,7.63,2.1,15.26,3.14,22.9c0.45,3.3,0.95,6.73,2.79,9.52
	C1289.31,632.56,1283.69,622.74,1282.32,610.5z"/>
<path class="st15" d="M1287.91,559.68c0.19,3.42,0.37,6.85,0.56,10.27c0.06,1.02,0.37,2.32,1.39,2.43c0.43-0.86,0.28-1.87,0.13-2.82
	c-0.65-3.94-1.32-7.88-2-11.82C1287.67,557.79,1287.83,558.22,1287.91,559.68z"/>
<path class="st15" d="M1292.25,548.04c0.5,5.99,1.3,11.96,2.39,17.87c0.23,1.24,0.75,2.75,2.01,2.88
	c-1.04-6.96-2.44-13.87-4.2-20.69C1292.7,548.7,1292.94,549.31,1292.25,548.04z"/>
<path class="st15" d="M1305.33,551.11c0.18,3.94,0.56,7.87,1.15,11.77c0.13,0.83,0.69,1.92,1.47,1.59c0.48-0.2,0.58-0.82,0.59-1.33
	C1308.67,559.15,1307.84,555.13,1305.33,551.11z"/>
<path class="st15" d="M1283.39,671.72c0.46,5.46,1.01,11.17,4.06,15.74C1288.46,682.08,1287.55,676.38,1283.39,671.72z"/>
<path class="st15" d="M1287.62,651.98c1.74,9.69,3.48,19.37,5.23,29.06c0.45,2.48,1.15,5.32,3.44,6.42
	C1295.55,675.19,1292.99,663.04,1287.62,651.98z"/>
<path class="st15" d="M1287.54,593.38c1.2,8.34,2.39,16.67,3.63,25c0.36,2.42,0.74,4.9,1.91,7.05c1.37-5.77,0.61-11.83-0.66-17.62
	C1291.15,602.02,1289.36,596.32,1287.54,593.38z"/>
<path class="st15" d="M1287.01,577.65c-0.45,3.84,0.19,7.81,1.84,11.31C1289.61,584.56,1289.1,579.94,1287.01,577.65z"/>
<path class="st15" d="M1281.62,714.42c0.47,3.7,0.97,7.48,2.61,10.83C1285.08,720.96,1284.32,716.37,1281.62,714.42z"/>
<path class="st15" d="M576.37,531.41c-14.59,1.47-29.1,3.69-43.46,6.64c22.27-0.36,44.49-3.07,66.19-8.07
	C588.6,529.24,578.03,529.6,576.37,531.41z"/>
<path class="st15" d="M523.64,557.31c-11.56,1.92-22.99,4.61-34.18,8.05c13.15,2.7,27.36-0.13,38.43-7.66
	C522.98,556.3,517.56,556.73,523.64,557.31z"/>
<path class="st15" d="M522.1,535.45c-6.86,1.62-13.47,4.28-19.54,7.85c8.74,1.51,18.05-0.5,25.37-5.48
	C525.93,536.15,523.11,535.21,522.1,535.45z"/>
<path class="st15" d="M669.13,521.41c-15.34,0.66-30.68,1.49-46.01,2.47c-2.45,0.16-5.1,0.4-6.91,2.05
	c0.78,1.26,2.56,1.33,4.04,1.26c17.73-0.89,35.43-2.45,53.05-4.66C671.79,521.55,670.01,521.38,669.13,521.41z"/>
<path class="st15" d="M766.76,516.02c-13.37,0.08-26.73,0.97-39.98,2.66c14.23,1.48,28.67,1.02,42.78-1.38
	C768.94,516.08,767.4,515.4,766.76,516.02z"/>
<path class="st15" d="M494.54,550.21c-4.86-0.14-9.75,0.63-14.32,2.27c6.45,2.12,13.73,1.64,19.85-1.3
	C497.74,549.38,494.51,548.78,494.54,550.21z"/>
<path class="st15" d="M427.75,784.73c-25.25-1.82-50.67,7.83-69.62,24.41c-4.62,4.04-8.91,8.51-12.26,13.64
	c-4.31,6.62-6.93,14.16-9.51,21.61c3.24-12.13,10.97-22.74,20.47-30.98s20.76-14.25,32.3-19.3
	C400.78,789.02,413.34,784.75,427.75,784.73z"/>
<path class="st15" d="M340.55,844.66c-1.37,4.71-2.24,9.56-2.59,14.45c1.41-0.97,1.3-3.03,1.27-4.74
	C339.15,850.76,340.08,847.15,340.55,844.66z"/>
<path class="st15" d="M355.29,824.27c7.88-10.4,20.09-16.59,32.26-21.45c-11.39,5.92-21.54,13.9-31.61,21.83
	C355.62,824.91,355.27,825.2,355.29,824.27z"/>
<path class="st15" d="M431.72,787.14c2.25,4.47,0.04,9.76-2.15,14.23C431.83,797.48,431.87,792.4,431.72,787.14z"/>
<path class="st15" d="M952.62,422.78c0.98,11.48,1.95,23.17-0.5,34.44C954.26,446,955.77,434.23,952.62,422.78z"/>
<path class="st15" d="M945.13,476.41c0.01,0,0.02,0,0.03,0c0.05,0,0.1,0.01,0.15,0.01c0.02,0,0.04,0,0.06,0
	c0.13-0.19,0.22-0.43,0.28-0.66c0.41-1.47,0.82-2.96,1.23-4.45C946.22,472.98,945.59,474.67,945.13,476.41z"/>
<path class="st15" d="M946.88,471.29c1.29-3.3,2.68-6.57,3.05-10.08C948.72,464.75,947.77,468.05,946.88,471.29z"/>
<path class="st15" d="M950.6,432.18c0.2,6.67-0.04,13.36-0.71,20.01C950.86,445.3,951.17,438.33,950.6,432.18z"/>
<path class="st15" d="M958.39,425.66c1.57,3.15,1.31,6.85,1.23,10.36c-0.24,10.87,1.53,21.9-0.79,32.52
	c3.35-9.3,1.22-19.53,1.08-29.4C959.86,434.94,960.16,430.64,958.39,425.66z"/>
<path class="st15" d="M955.2,466.4c0.08,2.92-0.41,5.85-1.45,8.59C954.56,472.2,954.99,469.3,955.2,466.4z"/>
<path class="st15" d="M971.58,448.22c0.83,4.93,0.18,9.98-0.48,14.94c-0.58,4.38-1.16,8.76-1.74,13.13
	c2.5-6.21,3.76-12.91,3.69-19.59C973.03,453.94,972.69,450.97,971.58,448.22z"/>
<path class="st15" d="M966.93,436.13c-0.04-0.56-0.09-1.11-0.13-1.67c0.34,2.43,0.64,4.86,0.9,7.29c0.29-1.92,0.57-3.94-0.11-5.77
	C967.37,435.39,967.05,434.83,966.93,436.13z"/>
<path class="st15" d="M989.35,462.8c0.43,2.77,0.25,5.63-0.51,8.33c-0.37,1.3-0.87,2.58-0.96,3.92c0.72-1.48,1.45-2.99,1.72-4.61
	c0.26-1.57,0.07-3.18,0.34-4.75c0.16-0.93,0.45-2.01-0.17-2.72c-0.05-0.06-0.13-0.12-0.21-0.11
	C989.48,462.88,989.42,463.01,989.35,462.8z"/>
<path class="st15" d="M981.02,441.41c0.61,2.69,0.04,5.5,0.28,8.25c0.02,0.23,0.09,0.52,0.32,0.56c0.22-1.63,0.32-3.27,0.28-4.91
	C981.88,444.18,981.77,442.98,981.02,441.41z"/>
<path class="st15" d="M1008.28,454.36c0.77,5.67,0.5,11.49-0.8,17.06c1.46-2.63,2.06-5.67,2-8.67
	C1009.41,459.75,1008.71,456.79,1008.28,454.36z"/>
<path class="st15" d="M992.68,442.49c1.16,1.53,1.42,3.54,1.43,5.45c0.01,1.91-0.2,3.85,0.19,5.72
	C995.08,450.15,994.6,446.38,992.68,442.49z"/>
<path class="st15" d="M981.82,465.29c-0.03,1.9-0.06,3.81-0.09,5.71c0.49-2.1,0.74-4.27,0.74-6.43
	C982.3,464.5,981.83,464.63,981.82,465.29z"/>
<path class="st15" d="M1020.99,476.46c0.02,0,0.05,0,0.07,0c0.03,0,0.06,0,0.09,0c1.38-2.91,1.78-6.27,1.09-9.42
	c-0.14,0.03-0.29,0.07-0.4,0.06C1021.97,470.23,1021.67,473.39,1020.99,476.46z"/>
<path class="st15" d="M1017.41,456.23c0.22,1.18,0.43,2.36,0.65,3.53C1018.7,458.43,1018.57,456.75,1017.41,456.23z"/>
<path class="st15" d="M1029.72,461.94c0.88,2.37,0.83,4.98,0.48,7.48c-0.33,2.36-0.9,4.68-1.17,7.05h0.12c0.01,0,0.01,0,0.02,0
	c0.34-0.8,0.52-1.66,0.67-2.52c0.42-2.47,0.65-4.98,0.69-7.48C1030.53,465.1,1030.46,463.64,1029.72,461.94z"/>
<path class="st15" d="M1002.25,470.69c-0.14-0.34-0.38-0.69-0.27-1.27c-0.11,2.35-0.39,4.7-0.84,7.01c0,0,0,0,0,0
	c0.02,0,0.04,0,0.06,0.01c0.46-1.13,0.83-2.29,1.07-3.47C1002.43,472.21,1002.54,471.4,1002.25,470.69z"/>
</svg>
